<?xml version="1.0" encoding="UTF-8" standalone="no"?>
<svg
   id="_レイヤー_1"
   data-name="レイヤー 1"
   viewBox="0 0 2400 800"
   version="1.1"
   sodipodi:docname="ONNENAI.svg"
   width="2400"
   height="800"
   inkscape:version="1.3.2 (091e20e, 2023-11-25, custom)"
   xmlns:inkscape="http://www.inkscape.org/namespaces/inkscape"
   xmlns:sodipodi="http://sodipodi.sourceforge.net/DTD/sodipodi-0.dtd"
   xmlns="http://www.w3.org/2000/svg"
   xmlns:svg="http://www.w3.org/2000/svg">
  <sodipodi:namedview
     id="namedview18"
     pagecolor="#ffffff"
     bordercolor="#000000"
     borderopacity="0"
     inkscape:showpageshadow="2"
     inkscape:pageopacity="0.0"
     inkscape:pagecheckerboard="true"
     inkscape:deskcolor="#d1d1d1"
     inkscape:zoom="0.271"
     inkscape:cx="1501.845"
     inkscape:cy="1500"
     inkscape:window-width="1920"
     inkscape:window-height="1009"
     inkscape:window-x="1072"
     inkscape:window-y="386"
     inkscape:window-maximized="1"
     inkscape:current-layer="_レイヤー_1" />
  <defs
     id="defs1">
    <style
       id="style1">
      .cls-1 {
        fill: #fff;
      }

      .cls-2 {
        stroke-linejoin: bevel;
      }

      .cls-2, .cls-3 {
        stroke-linecap: round;
      }

      .cls-2, .cls-3, .cls-4 {
        fill: none;
        stroke: #fff;
        stroke-width: 40px;
      }

      .cls-3, .cls-4 {
        stroke-miterlimit: 10;
      }
    </style>
  </defs>
  <path
     class="cls-1"
     d="m 447.82705,629.08874 v 0 c -11.05,0 -19.44,-8.95 -18.75,-20 l 8.31,-133.13 c 0.52,-8.28 7.65,-15 15.94,-15 h 10 c 8.28,0 14.58,6.72 14.06,15 l -8.31,133.13 c -0.69,11.05 -10.2,20 -21.25,20 z"
     id="path1" />
  <path
     class="cls-1"
     d="m 747.82703,629.08874 v 0 c -11.05,0 -19.44,-8.95 -18.75,-20 l 7.72,-123.74 c 0.52,-8.28 7.65,-15 15.94,-15 h 10 c 8.28,0 14.58,6.72 14.06,15 l -7.72,123.74 c -0.69,11.05 -10.2,20 -21.25,20 z"
     id="path2" />
  <path
     class="cls-3"
     d="m 457.19705,479.08874 c 5.17,-82.84 76.52,-150 159.36,-150 82.83998,0 145.80998,67.16 140.63998,150"
     id="path3" />
  <path
     class="cls-1"
     d="m 1126.827,629.08874 v 0 c -11.05,0 -19.44,-8.95 -18.75,-20 l 8.19,-131.18 39.93,1.18 -8.11,130 c -0.69,11.05 -10.2,20 -21.25,20 z"
     id="path4" />
  <path
     class="cls-1"
     d="m 826.82703,629.08874 v 0 c -11.05,0 -19.44,-8.95 -18.75,-20 l 8.26,-132.34 39.85,2.34 -8.11,130 c -0.69,11.05 -10.2,20 -21.25,20 z"
     id="path5" />
  <path
     class="cls-4"
     d="m 836.19703,479.08874 c 5.17,-82.84 76.52,-150 159.35997,-150 82.84,0 145.81,67.16 140.64,150"
     id="path6" />
  <path
     class="cls-1"
     d="m 2285.917,629.08874 v 0 c -11.05,0 -19.44,-8.95 -18.75,-20 l 16.23,-260 c 0.69,-11.05 10.2,-20 21.25,-20 v 0 c 11.05,0 19.44,8.95 18.75,20 l -16.23,260 c -0.69,11.05 -10.2,20 -21.25,20 z"
     id="path7" />
  <path
     class="cls-1"
     d="m 2326.687,296.37874 c -0.69,11.05 -10.2,20 -21.25,20 -11.05,0 -19.44,-8.95 -18.75,-20 0.69,-11.05 10.2,-20 21.25,-20 11.05,0 19.44,8.95 18.75,20 z"
     id="path8" />
  <path
     class="cls-4"
     d="m 2210.277,479.08874 c -5.17,82.84 -76.52,150 -159.36,150 -82.84,0 -145.81,-67.16 -140.64,-150 5.17,-82.84 76.52,-150 159.36,-150 82.84,0 145.81,67.16 140.64,150 z"
     id="path9" />
  <path
     class="cls-1"
     d="m 2200.917,629.08874 v 0 c -11.05,0 -19.44,-8.95 -18.75,-20 l 8.11,-130 h 40 l -8.11,130 c -0.69,11.05 -10.2,20 -21.25,20 z"
     id="path10" />
  <path
     class="cls-1"
     d="m 1535.897,629.38874 v 0 c -11.05,0 -19.44,-8.95 -18.75,-20 l 8.21,-131.51 39.91,1.51 -8.11,130 c -0.69,11.05 -10.2,20 -21.25,20 z"
     id="path11" />
  <path
     class="cls-1"
     d="m 1835.917,629.08874 v 0 c -11.05,0 -19.44,-8.95 -18.75,-20 l 8.23,-131.86 39.88,1.86 -8.11,130 c -0.69,11.05 -10.2,20 -21.25,20 z"
     id="path12" />
  <path
     class="cls-4"
     d="m 1545.277,479.08874 c 5.17,-82.84 76.52,-150 159.36,-150 82.84,0 145.81,67.16 140.64,150"
     id="path13" />
  <path
     class="cls-3"
     d="m 383.16705,475.28874 c -5.17,82.84 -76.52,150 -159.36,150 -82.84,0 -145.809995,-67.16 -140.639995,-150 5.17,-82.84 76.519995,-150 159.359995,-150"
     id="path14" />
  <path
     class="cls-1"
     d="m 191.66705,439.27874 c -0.69,11.05 -10.2,20 -21.25,20 -11.05,0 -19.44,-8.95 -18.75,-20 0.69,-11.05 10.2,-20 21.25,-20 11.05,0 19.44,8.95 18.75,20 z"
     id="path15" />
  <path
     class="cls-4"
     d="m 207.64705,329.30874 c 0,0 126.66,-216.49999 221.7,-209.45999 95.04,7.04 -52.52,189.38999 -98.2,194.08999 -45.68,4.7 -123.5,15.37 -123.5,15.37 z"
     id="path16" />
  <path
     class="cls-2"
     d="m 1452.877,579.43874 c -29.04,28.27 -68.42,45.85 -110.81,45.85 -82.84,0 -145.81,-67.16 -140.64,-150 5.17,-82.84 76.52,-150 159.36,-150 46.8,0 80.26,14.12 105.96,46.18"
     id="path17" />
  <path
     class="cls-1"
     d="m 1237.627,587.76874 v 0 c -7.32,-7.81 -6.53,-20.47 1.77,-28.28 l 214.32,-201.73 c 8.3,-7.81 20.96,-7.81 28.28,0 v 0 c 7.32,7.81 6.53,20.47 -1.77,28.28 l -214.32,201.73 c -8.3,7.81 -20.96,7.81 -28.28,0 z"
     id="path18" />
</svg>
